<?xml version="1.0" encoding="utf-8"?>
<!DOCTYPE svg PUBLIC "-//W3C//DTD SVG 20010904//EN" "http://www.w3.org/TR/2001/REC-SVG-20010904/DTD/svg10.dtd">
<svg version="1.0" xmlns="http://www.w3.org/2000/svg" width="2002pt" height="286pt" viewBox="0 0 2002 286" style="" preserveAspectRatio="xMidYMid meet">
<g fill="#037EF3FF" stroke="#037EF3FF">
<path d="M 1.000 142.990 L 1.000 283.980 689.250 284.240 C 1067.788 284.383 1378.022 284.141 1378.661 283.701 C 1379.300 283.262 1380.114 283.375 1380.470 283.951 C 1380.894 284.638 1389.653 284.996 1405.809 284.989 C 1432.407 284.977 1438.000 284.522 1438.000 282.369 C 1438.000 281.421 1438.614 281.614 1440.000 283.000 C 1441.141 284.141 1443.333 285.000 1445.106 285.000 C 1448.830 285.000 1460.034 282.206 1461.645 280.875 C 1462.275 280.355 1466.931 277.914 1471.992 275.451 C 1478.006 272.524 1481.374 270.288 1481.711 268.997 C 1481.995 267.911 1482.673 267.298 1483.217 267.634 C 1483.820 268.006 1483.942 270.714 1483.531 274.554 C 1482.378 285.324 1481.723 285.003 1504.785 284.985 C 1515.628 284.976 1525.107 284.585 1525.848 284.115 C 1528.529 282.416 1526.650 279.632 1522.069 278.517 C 1519.637 277.925 1517.498 276.995 1517.317 276.451 C 1517.136 275.907 1518.678 274.570 1520.744 273.481 C 1526.051 270.682 1528.240 268.472 1527.814 266.341 C 1527.487 264.701 1526.360 264.500 1517.473 264.500 L 1507.500 264.500 1507.796 260.000 C 1508.539 248.682 1512.625 239.740 1526.760 218.500 C 1538.411 200.992 1547.581 183.418 1549.155 175.580 C 1550.437 169.197 1551.525 169.094 1552.224 175.291 C 1552.822 180.603 1560.241 195.531 1567.407 205.846 C 1574.904 216.635 1586.000 238.787 1586.000 242.963 C 1586.000 243.471 1584.269 244.925 1582.154 246.193 C 1580.038 247.462 1576.591 250.012 1574.493 251.861 C 1570.736 255.171 1570.698 255.276 1571.969 258.861 C 1572.679 260.862 1574.632 264.525 1576.309 267.000 C 1577.986 269.475 1580.847 273.731 1582.666 276.458 C 1584.486 279.185 1586.993 281.971 1588.237 282.650 C 1590.959 284.133 1600.432 285.469 1601.881 284.574 C 1603.637 283.488 1601.965 281.117 1598.580 279.893 C 1595.699 278.851 1595.210 278.088 1594.037 272.799 C 1592.961 267.947 1592.956 266.164 1594.010 262.969 C 1594.719 260.823 1595.688 259.307 1596.163 259.601 C 1597.942 260.700 1601.059 268.158 1601.657 272.747 C 1602.411 278.529 1603.583 281.000 1605.571 281.000 C 1606.396 281.000 1611.228 279.005 1616.308 276.566 C 1621.389 274.128 1628.837 271.221 1632.860 270.106 L 1640.173 268.079 1639.980 275.290 C 1639.873 279.255 1639.834 283.063 1639.893 283.750 C 1639.975 284.705 1644.707 285.000 1659.918 285.000 C 1670.873 285.000 1680.548 284.727 1681.418 284.393 C 1685.617 282.782 1679.792 278.000 1673.631 278.000 C 1672.288 278.000 1668.415 275.908 1664.985 273.329 L 1658.772 268.659 1659.432 260.579 C 1660.409 248.635 1662.918 231.945 1665.288 221.612 C 1666.702 215.451 1667.429 208.614 1667.532 200.500 C 1667.616 193.900 1668.206 185.830 1668.843 182.566 C 1670.165 175.788 1670.315 155.580 1669.091 149.250 C 1668.639 146.913 1668.580 145.000 1668.961 145.000 C 1669.342 145.000 1671.598 147.685 1673.976 150.967 C 1676.353 154.248 1678.627 156.731 1679.028 156.483 C 1679.429 156.235 1683.280 153.103 1687.586 149.523 C 1692.767 145.216 1695.750 143.350 1696.407 144.007 C 1698.371 145.971 1701.567 144.929 1705.264 141.118 C 1707.576 138.735 1708.804 136.654 1708.448 135.724 C 1708.051 134.689 1710.498 132.013 1716.183 127.262 C 1720.758 123.441 1725.083 119.609 1725.796 118.748 C 1726.909 117.405 1725.103 114.701 1713.026 99.638 C 1705.290 89.989 1698.570 81.852 1698.093 81.558 C 1697.617 81.263 1693.238 84.002 1688.363 87.644 C 1683.489 91.286 1677.853 95.311 1675.841 96.588 L 1672.181 98.911 1670.654 95.092 C 1666.691 85.188 1665.874 79.111 1666.088 61.121 C 1666.204 51.429 1666.677 42.749 1667.141 41.831 C 1667.604 40.913 1669.281 39.878 1670.866 39.529 C 1675.091 38.601 1677.494 35.427 1680.406 26.925 C 1683.523 17.822 1683.537 17.468 1680.991 11.712 C 1679.405 8.127 1678.015 6.702 1674.400 4.952 C 1664.753 0.281 1656.550 1.404 1653.202 7.851 C 1649.433 15.110 1648.842 18.328 1650.028 25.137 C 1652.650 40.187 1652.731 39.479 1647.876 43.964 C 1635.546 55.353 1633.932 57.469 1629.445 68.130 C 1627.971 71.634 1625.320 77.650 1623.555 81.500 C 1616.539 96.803 1613.744 111.124 1614.097 129.967 C 1614.317 141.745 1614.275 141.998 1611.660 144.612 C 1610.197 146.076 1609.000 148.088 1609.000 149.085 C 1609.000 151.371 1615.482 156.413 1617.450 155.658 C 1618.258 155.347 1620.288 153.205 1621.960 150.897 C 1624.442 147.470 1625.000 145.721 1625.000 141.364 C 1625.000 134.904 1626.387 128.649 1629.736 120.000 C 1631.120 116.425 1633.030 111.354 1633.979 108.730 C 1636.751 101.073 1637.314 101.862 1636.694 112.532 C 1636.247 120.220 1635.396 124.501 1633.055 130.851 C 1629.361 140.869 1629.277 143.905 1632.502 150.833 L 1634.985 156.166 1632.100 167.333 C 1630.514 173.475 1628.697 181.031 1628.063 184.124 C 1627.105 188.798 1625.778 191.098 1620.205 197.738 C 1616.517 202.132 1612.150 207.611 1610.500 209.912 C 1603.470 219.718 1600.860 223.000 1600.090 223.000 C 1599.215 223.000 1596.544 216.442 1595.407 211.500 C 1595.027 209.850 1593.847 206.766 1592.785 204.647 C 1591.723 202.528 1589.736 197.353 1588.368 193.147 C 1587.000 188.941 1585.463 184.600 1584.952 183.500 C 1582.390 177.983 1573.657 153.639 1572.037 147.500 C 1569.993 139.752 1568.268 121.541 1569.634 122.128 C 1580.193 126.664 1591.070 134.924 1594.801 141.240 C 1596.096 143.432 1597.159 143.997 1599.966 143.985 C 1605.366 143.961 1608.115 141.053 1607.210 136.319 C 1606.684 133.566 1597.846 126.562 1589.500 122.283 C 1579.938 117.381 1570.000 106.307 1570.000 100.554 C 1570.000 99.247 1570.853 95.438 1571.895 92.090 C 1574.266 84.473 1573.629 81.242 1567.982 72.236 C 1563.339 64.830 1560.993 57.412 1561.014 50.201 C 1561.035 42.864 1561.769 41.266 1565.432 40.579 C 1567.219 40.244 1569.561 38.964 1570.638 37.735 C 1575.814 31.826 1578.386 14.294 1574.678 10.196 C 1573.755 9.177 1573.000 7.892 1573.000 7.342 C 1573.000 6.792 1570.782 5.303 1568.070 4.033 C 1562.675 1.506 1556.815 1.532 1551.490 4.106 C 1545.260 7.118 1538.650 27.792 1535.026 55.596 C 1534.537 59.351 1533.256 63.192 1531.691 65.596 C 1530.293 67.743 1528.653 71.394 1528.047 73.708 C 1527.441 76.022 1526.527 78.174 1526.015 78.490 C 1524.706 79.300 1522.591 74.690 1520.512 66.500 C 1519.535 62.650 1518.083 57.475 1517.286 55.000 C 1516.489 52.525 1515.792 48.271 1515.738 45.548 L 1515.639 40.595 1520.449 39.368 C 1523.094 38.693 1525.726 37.674 1526.297 37.103 C 1530.119 33.281 1532.152 17.548 1529.735 10.500 C 1527.971 5.358 1522.841 2.594 1514.960 2.539 C 1507.733 2.488 1504.512 4.639 1501.297 11.663 C 1498.655 17.434 1498.675 18.525 1501.706 34.317 C 1502.369 37.773 1499.450 41.129 1490.000 47.774 C 1481.507 53.745 1478.168 56.836 1476.253 60.500 C 1473.945 64.917 1460.947 101.881 1460.168 106.243 L 1459.500 109.986 1455.750 105.355 L 1452.000 100.724 1452.000 87.314 C 1452.000 75.766 1451.712 73.320 1449.928 69.702 C 1448.788 67.391 1446.940 62.589 1445.820 59.032 C 1444.003 53.257 1443.921 51.998 1445.052 47.282 C 1446.115 42.853 1446.681 42.000 1448.562 42.000 C 1450.181 42.000 1451.876 40.399 1454.648 36.250 C 1458.197 30.940 1458.518 29.870 1458.847 22.276 C 1459.141 15.478 1458.839 13.298 1457.102 9.711 C 1454.624 4.592 1450.014 1.962 1443.716 2.076 C 1436.466 2.207 1432.804 4.139 1430.194 9.211 C 1427.929 13.612 1427.893 14.066 1429.038 23.628 C 1430.149 32.898 1430.087 33.895 1428.022 39.981 C 1425.348 47.864 1424.698 49.114 1419.883 55.646 C 1417.797 58.477 1415.803 62.077 1415.451 63.646 C 1414.828 66.432 1412.960 71.260 1410.782 75.716 C 1409.448 78.444 1408.000 77.745 1408.000 74.374 C 1408.000 72.995 1406.912 70.434 1405.581 68.683 C 1402.833 65.066 1396.539 51.069 1395.555 46.385 C 1394.961 43.559 1395.161 43.218 1397.714 42.707 C 1401.861 41.878 1404.604 39.043 1408.509 31.552 C 1411.361 26.081 1412.000 23.760 1412.000 18.878 C 1412.000 9.294 1409.087 5.271 1400.777 3.376 C 1394.088 1.851 1388.853 3.265 1385.018 7.632 L 1382.044 11.019 1378.772 7.453 C 1375.628 4.027 1375.128 3.851 1366.000 2.971 C 1360.354 2.426 1081.553 2.043 678.750 2.027 L 1.000 2.000 1.000 142.990 M 337.540 69.082 C 345.601 90.762 352.549 109.400 352.979 110.500 C 353.409 111.600 354.468 114.300 355.333 116.500 C 364.398 139.562 392.000 215.361 392.000 217.192 C 392.000 218.504 392.936 221.360 394.079 223.539 C 395.223 225.717 396.817 229.300 397.623 231.500 C 400.156 238.422 403.209 242.033 408.686 244.584 C 411.538 245.913 414.369 247.000 414.976 247.000 C 417.292 247.000 423.857 242.958 426.347 239.999 C 432.804 232.326 435.472 222.277 437.497 198.000 C 438.346 187.825 439.715 171.850 440.540 162.500 C 442.555 139.666 444.763 114.116 446.504 93.500 C 447.294 84.150 448.380 73.125 448.919 69.000 C 449.862 61.781 449.787 61.257 446.909 55.000 C 443.441 47.458 440.859 45.782 429.384 43.622 C 425.470 42.886 421.757 41.968 421.134 41.583 C 419.764 40.736 419.656 34.093 420.978 32.000 C 421.797 30.704 428.958 30.462 473.579 30.224 C 511.368 30.021 525.603 30.255 526.616 31.096 C 528.711 32.835 528.275 36.694 525.785 38.438 C 524.567 39.291 520.605 41.122 516.981 42.507 C 508.436 45.773 502.826 51.458 501.200 58.500 C 500.565 61.250 499.367 70.700 498.537 79.500 C 497.708 88.300 496.565 100.000 495.997 105.500 C 494.981 115.340 494.243 123.267 491.481 154.000 C 490.715 162.525 489.369 176.925 488.488 186.000 C 484.615 225.932 485.247 232.117 493.836 238.330 C 499.197 242.207 503.873 244.000 508.626 244.000 C 512.197 244.000 514.217 246.147 515.382 251.178 C 516.078 254.182 514.239 256.664 510.680 257.523 C 509.481 257.813 465.574 257.926 413.109 257.775 C 323.746 257.517 317.649 257.390 316.621 255.761 C 314.629 252.602 318.058 248.750 324.588 246.812 C 338.956 242.547 344.265 228.796 337.720 212.805 C 336.976 210.987 335.331 205.599 334.064 200.832 C 331.211 190.100 327.946 185.727 321.589 184.127 C 318.712 183.402 305.117 183.000 283.508 183.000 C 256.059 183.000 249.406 183.266 247.200 184.450 C 242.919 186.749 235.464 195.005 232.256 201.000 C 225.967 212.752 221.915 229.071 224.209 233.403 C 226.141 237.050 232.731 241.861 237.385 243.022 C 250.900 246.391 254.777 248.047 255.985 250.963 C 256.643 252.552 256.884 254.791 256.520 255.937 C 255.862 258.012 255.650 258.021 214.679 257.761 L 173.500 257.500 173.188 254.799 C 172.699 250.558 174.481 248.435 181.230 245.221 C 187.700 242.139 196.432 234.365 197.617 230.632 C 197.987 229.465 201.752 222.658 205.983 215.505 C 210.215 208.352 218.408 194.400 224.191 184.500 C 240.806 156.054 255.643 130.673 264.525 115.500 C 269.033 107.800 277.581 93.175 283.522 83.000 C 289.463 72.825 297.782 58.650 302.010 51.500 C 306.237 44.350 310.322 36.765 311.088 34.643 C 311.853 32.522 313.981 29.468 315.816 27.856 L 319.154 24.926 321.018 27.295 C 322.043 28.599 329.478 47.403 337.540 69.082 M 724.336 32.171 C 725.083 33.354 725.014 37.008 724.102 44.671 C 723.394 50.627 722.500 61.125 722.117 68.000 C 721.346 81.832 720.815 83.740 717.364 85.052 C 711.613 87.238 709.000 83.474 709.000 73.002 C 709.000 67.288 706.178 60.503 702.227 56.717 C 700.633 55.191 696.218 52.787 692.415 51.376 C 685.946 48.976 684.008 48.776 662.395 48.267 C 649.688 47.968 637.677 48.026 635.706 48.395 C 630.959 49.286 628.440 53.525 627.619 62.000 C 627.273 65.575 626.319 75.925 625.500 85.000 C 624.681 94.075 623.574 106.000 623.041 111.500 C 621.728 125.036 621.675 124.531 624.547 125.839 C 627.695 127.274 648.723 127.380 656.006 125.999 C 668.012 123.722 675.224 118.113 681.045 106.525 C 683.401 101.836 685.892 98.000 686.582 98.000 C 687.272 98.000 688.490 97.749 689.289 97.442 C 690.088 97.136 691.514 97.656 692.457 98.599 C 693.954 100.096 694.085 101.658 693.491 110.907 C 693.117 116.733 692.388 123.300 691.871 125.500 C 691.354 127.700 690.273 138.689 689.469 149.920 C 687.987 170.619 687.129 174.246 683.374 175.687 C 679.503 177.172 675.016 170.506 674.995 163.236 C 674.992 162.281 673.305 158.884 671.245 155.686 C 668.134 150.856 666.460 149.375 661.357 146.936 C 655.532 144.152 654.538 144.000 642.172 144.000 C 625.026 144.000 620.723 145.836 618.905 153.926 C 617.894 158.426 615.251 194.954 614.304 217.500 C 613.815 229.155 613.961 230.862 615.714 234.000 C 618.118 238.301 619.824 238.727 635.308 238.882 C 654.661 239.076 668.895 236.144 683.446 228.969 C 692.876 224.319 704.506 214.902 710.786 206.830 C 718.159 197.354 719.538 196.000 721.812 196.000 C 728.775 196.000 726.141 214.045 716.134 234.906 C 715.235 236.779 711.165 241.605 707.089 245.630 C 701.183 251.462 698.334 253.462 693.067 255.474 L 686.458 258.000 611.351 258.000 C 528.957 258.000 533.112 258.318 534.475 252.114 C 535.204 248.793 537.318 247.149 544.212 244.540 C 549.192 242.656 556.304 237.169 558.089 233.834 C 561.160 228.096 562.217 220.881 566.493 176.500 C 570.144 138.604 571.097 128.863 572.018 120.000 C 574.778 93.454 575.186 86.231 574.758 71.500 C 574.395 59.007 573.918 54.793 572.585 52.275 C 570.826 48.951 566.138 45.000 563.953 45.000 C 560.349 45.000 548.919 40.717 548.015 39.028 C 546.548 36.286 546.767 33.376 548.577 31.566 C 549.993 30.150 559.009 30.015 636.718 30.244 C 716.355 30.480 723.367 30.634 724.336 32.171 M 1087.350 32.193 C 1088.114 33.405 1088.052 36.384 1087.129 42.693 C 1086.420 47.537 1085.616 57.575 1085.342 65.000 C 1085.068 72.425 1084.359 79.775 1083.766 81.334 C 1082.536 84.567 1078.996 86.288 1075.422 85.391 C 1072.785 84.729 1072.455 83.807 1071.530 74.500 C 1070.082 59.941 1066.544 55.458 1052.500 50.380 C 1048.181 48.819 1044.025 48.567 1022.000 48.536 C 989.332 48.490 991.297 46.943 989.022 74.500 C 987.784 89.505 985.382 113.442 984.457 120.000 C 983.845 124.334 983.939 124.551 986.991 125.869 C 989.399 126.910 993.808 127.121 1005.330 126.748 C 1018.930 126.308 1021.173 125.976 1027.000 123.544 C 1035.512 119.992 1040.455 115.147 1044.697 106.195 C 1048.423 98.334 1051.348 96.046 1055.102 98.055 C 1057.308 99.235 1057.265 101.232 1054.466 127.500 C 1053.704 134.650 1052.596 147.662 1052.003 156.415 C 1051.040 170.623 1050.698 172.528 1048.809 174.165 C 1044.126 178.227 1042.007 176.125 1037.570 163.010 C 1034.543 154.063 1031.872 150.836 1024.377 147.074 C 1018.469 144.108 1017.793 144.000 1005.087 144.000 C 993.966 144.000 991.321 144.306 988.063 145.968 C 982.288 148.914 981.835 150.871 977.858 190.000 C 977.271 195.775 976.599 207.475 976.364 216.000 C 975.938 231.475 975.941 231.505 978.485 234.324 C 981.951 238.168 985.567 239.000 998.802 239.000 C 1018.105 239.000 1031.529 236.150 1046.500 228.874 C 1053.842 225.306 1057.072 222.935 1064.034 216.000 C 1068.727 211.325 1074.747 204.913 1077.410 201.750 C 1088.965 188.031 1092.751 200.113 1083.912 222.500 C 1078.534 236.121 1077.701 237.501 1070.118 245.357 C 1065.405 250.240 1061.670 253.048 1057.143 255.113 L 1050.786 258.012 974.752 257.756 C 904.493 257.519 898.636 257.371 897.647 255.803 C 895.105 251.773 900.360 246.137 909.115 243.503 C 912.493 242.487 919.864 235.147 921.673 231.000 C 924.559 224.379 925.069 221.440 927.049 200.000 C 928.141 188.175 929.687 172.200 930.484 164.500 C 931.281 156.800 932.620 143.862 933.458 135.749 C 934.297 127.636 935.689 114.361 936.551 106.249 C 939.269 80.677 939.488 69.834 937.478 60.258 C 936.014 53.283 935.113 51.179 932.441 48.508 C 930.652 46.719 927.908 45.011 926.344 44.713 C 912.266 42.034 906.778 37.217 911.660 31.823 C 913.249 30.067 917.015 30.000 999.801 30.245 C 1079.792 30.481 1086.362 30.627 1087.350 32.193 M 1241.276 27.059 C 1255.223 28.460 1262.405 30.300 1280.264 37.046 C 1298.794 44.045 1301.752 44.363 1305.375 39.750 C 1309.935 33.943 1310.911 33.060 1313.488 32.414 C 1318.192 31.233 1318.651 32.704 1319.361 51.248 C 1319.724 60.737 1320.049 76.142 1320.083 85.482 C 1320.143 101.771 1320.056 102.536 1317.962 104.232 C 1313.688 107.692 1311.933 106.501 1307.103 96.859 C 1292.460 67.630 1274.087 50.037 1252.000 44.099 C 1238.347 40.428 1219.524 41.338 1206.500 46.299 C 1198.820 49.224 1188.273 55.480 1182.994 60.240 C 1175.680 66.837 1166.395 82.562 1160.994 97.500 C 1155.204 113.517 1152.610 142.981 1154.997 165.632 C 1156.005 175.196 1160.487 190.253 1164.401 197.222 C 1174.268 214.788 1189.437 227.559 1206.154 232.372 C 1213.123 234.379 1231.135 234.502 1239.000 232.596 C 1260.173 227.467 1276.239 218.974 1292.719 204.198 C 1302.167 195.727 1306.459 193.000 1310.343 193.000 C 1319.938 193.000 1307.314 213.420 1287.955 229.213 C 1267.593 245.824 1248.686 254.270 1216.543 261.111 C 1206.564 263.235 1185.640 261.126 1169.000 256.319 C 1156.323 252.657 1133.731 238.710 1123.282 228.094 C 1118.349 223.083 1107.997 209.019 1108.003 207.337 C 1108.004 206.876 1106.931 203.800 1105.617 200.500 C 1100.916 188.692 1097.685 173.621 1097.791 164.000 C 1097.864 157.337 1100.110 135.037 1101.064 131.500 C 1109.967 98.496 1119.731 79.108 1135.054 64.006 C 1149.736 49.536 1158.667 43.804 1179.366 35.565 C 1194.053 29.719 1197.985 28.786 1215.484 26.992 C 1221.525 26.372 1226.689 25.645 1226.959 25.375 C 1227.228 25.105 1228.361 25.152 1229.475 25.480 C 1230.589 25.808 1235.899 26.518 1241.276 27.059 M 837.321 26.980 C 841.623 27.524 847.151 28.651 849.606 29.484 C 852.061 30.318 854.707 31.000 855.487 31.000 C 856.266 31.000 860.412 32.522 864.702 34.382 C 876.063 39.310 878.707 39.570 886.049 36.480 C 889.518 35.019 893.578 34.022 895.352 34.194 L 898.500 34.500 898.765 64.828 L 899.030 95.155 896.765 97.044 C 895.498 98.101 892.921 98.948 890.919 98.967 C 886.905 99.004 886.332 98.238 883.460 89.000 C 879.799 77.222 878.673 74.771 874.656 69.837 C 872.370 67.029 869.420 63.329 868.099 61.616 C 861.373 52.887 845.991 44.719 832.075 42.489 C 819.802 40.522 806.961 43.970 797.195 51.855 C 791.062 56.807 788.316 62.114 787.548 70.500 C 786.659 80.205 787.992 86.125 792.117 90.782 C 799.115 98.682 806.940 102.687 840.500 115.544 C 864.871 124.880 875.695 131.369 885.332 142.418 C 891.598 149.603 892.702 151.611 895.001 160.000 C 895.680 162.475 896.857 166.493 897.617 168.928 C 899.897 176.228 899.341 186.049 895.922 198.917 C 894.229 205.288 891.807 212.097 890.540 214.050 C 889.273 216.002 887.091 219.827 885.691 222.550 C 883.306 227.186 874.647 237.026 869.000 241.515 C 867.625 242.609 864.475 245.112 862.000 247.078 C 853.360 253.940 847.468 256.457 831.655 260.040 C 820.571 262.551 810.492 262.434 798.398 259.654 C 794.604 258.782 788.125 257.355 784.000 256.483 C 779.875 255.611 772.900 253.841 768.500 252.551 C 764.100 251.261 758.909 249.932 756.966 249.598 C 749.841 248.373 748.228 245.356 746.493 230.000 C 745.849 224.299 745.514 222.137 741.942 200.626 C 739.862 188.106 739.854 187.702 741.652 185.939 C 746.392 181.290 751.165 182.994 754.429 190.500 C 759.942 203.177 762.037 207.219 767.105 214.950 C 774.450 226.156 784.746 235.870 792.567 238.973 C 795.830 240.268 798.968 241.680 799.540 242.111 C 800.111 242.543 804.151 243.633 808.515 244.535 C 815.218 245.919 817.699 245.993 824.476 245.008 C 839.375 242.841 847.151 239.075 855.198 230.125 C 860.280 224.473 862.708 217.756 863.635 206.786 C 864.225 199.810 864.058 198.814 861.427 193.619 C 859.862 190.528 856.988 186.741 855.041 185.204 C 849.215 180.605 838.379 174.129 835.341 173.430 C 826.932 171.495 804.928 162.899 794.000 157.280 C 761.587 140.612 752.215 126.115 753.273 94.282 C 753.824 77.729 755.469 72.258 763.622 59.878 C 768.374 52.663 774.273 46.892 785.341 38.633 C 793.133 32.818 797.541 30.931 809.000 28.506 C 813.125 27.633 818.075 26.531 820.000 26.056 C 821.925 25.581 824.850 25.372 826.500 25.592 C 828.150 25.811 833.019 26.436 837.321 26.980 M 1642.435 222.015 C 1641.099 231.082 1640.004 243.047 1640.003 248.605 L 1640.000 258.711 1633.250 259.504 C 1623.106 260.696 1620.781 260.547 1616.579 258.434 C 1613.476 256.874 1612.266 255.373 1610.317 250.667 L 1607.902 244.834 1613.686 238.167 C 1616.868 234.500 1619.703 231.273 1619.986 230.996 C 1620.268 230.718 1623.425 227.348 1627.000 223.505 C 1630.575 219.662 1635.171 215.286 1637.214 213.779 C 1639.257 212.272 1641.653 209.639 1642.538 207.927 C 1643.423 206.215 1644.309 204.975 1644.506 205.172 C 1644.703 205.369 1643.771 212.949 1642.435 222.015 M 1520.937 105.750 C 1521.494 107.813 1523.634 112.187 1525.691 115.471 C 1529.270 121.185 1529.418 121.767 1529.118 128.942 C 1528.946 133.067 1527.901 139.830 1526.797 143.971 C 1524.393 152.981 1522.610 162.514 1520.431 178.000 C 1518.460 192.002 1517.517 195.946 1515.523 198.519 C 1514.137 200.308 1514.024 197.213 1514.358 166.500 C 1514.599 144.245 1515.278 127.664 1516.322 118.500 C 1517.199 110.800 1517.936 103.938 1517.959 103.250 C 1518.047 100.573 1519.974 102.190 1520.937 105.750 M 1330.500 240.029 C 1336.306 242.166 1340.717 250.364 1339.513 256.781 C 1338.077 264.439 1332.279 269.000 1323.982 269.000 C 1309.636 269.000 1303.516 250.178 1315.165 241.883 C 1320.314 238.216 1324.273 237.737 1330.500 240.029 M 1456.826 126.563 C 1458.550 127.423 1460.225 128.556 1460.550 129.080 C 1461.927 131.309 1462.770 146.728 1461.785 151.673 C 1460.859 156.321 1460.974 157.155 1462.919 159.886 C 1465.741 163.850 1471.635 165.219 1473.704 162.391 C 1474.464 161.351 1475.330 159.375 1475.627 158.000 C 1475.924 156.625 1476.379 154.838 1476.637 154.028 C 1477.561 151.138 1478.969 155.261 1478.985 160.900 C 1479.012 170.370 1473.734 194.192 1472.015 192.363 C 1470.911 191.189 1460.277 166.093 1457.373 157.807 C 1453.613 147.081 1450.566 125.000 1452.846 125.000 C 1453.312 125.000 1455.103 125.703 1456.826 126.563 M 1421.899 235.898 C 1423.604 240.173 1425.000 244.065 1425.000 244.548 C 1425.000 245.030 1423.829 246.359 1422.398 247.500 L 1419.796 249.575 1422.455 256.037 C 1423.917 259.592 1426.538 265.425 1428.278 269.000 C 1430.019 272.575 1431.629 275.907 1431.856 276.403 C 1432.380 277.550 1421.468 276.321 1418.895 274.944 C 1416.219 273.512 1416.543 272.000 1419.526 272.000 C 1422.050 272.000 1422.051 271.998 1420.386 268.750 C 1418.318 264.713 1417.312 264.035 1413.369 264.015 C 1410.502 264.001 1410.143 263.625 1409.119 259.557 C 1408.503 257.114 1408.000 250.092 1408.000 243.954 L 1408.000 232.794 1411.750 228.983 C 1415.115 225.562 1415.669 225.323 1417.149 226.649 C 1418.055 227.462 1420.193 231.624 1421.899 235.898 M 1478.224 260.866 L 1480.574 264.231 1467.723 264.633 C 1457.196 264.961 1454.237 264.732 1451.353 263.363 C 1448.313 261.921 1446.000 258.770 1446.000 256.073 C 1446.000 254.929 1452.603 246.613 1458.893 239.832 L 1464.286 234.019 1470.080 245.760 C 1473.267 252.217 1476.932 259.015 1478.224 260.866 M 1439.065 190.693 C 1440.685 194.649 1444.700 201.624 1447.987 206.193 C 1451.275 210.762 1453.962 214.725 1453.959 215.000 C 1453.956 215.275 1452.502 217.128 1450.727 219.118 C 1448.952 221.107 1445.936 224.932 1444.023 227.618 C 1440.788 232.162 1440.525 232.327 1440.234 230.000 C 1440.062 228.625 1437.185 221.991 1433.841 215.259 L 1427.761 203.018 1429.841 197.759 C 1430.985 194.866 1432.726 189.367 1433.710 185.539 C 1434.897 180.925 1435.604 179.407 1435.810 181.039 C 1435.980 182.392 1437.445 186.737 1439.065 190.693 M 1363.000 239.476 C 1363.000 241.092 1366.189 248.154 1369.041 252.855 L 1371.077 256.210 1368.468 259.631 L 1365.860 263.051 1368.921 268.025 C 1370.604 270.761 1371.572 273.000 1371.071 273.000 C 1369.229 273.000 1358.656 262.421 1357.333 259.254 C 1355.885 255.789 1356.040 254.509 1359.207 243.751 C 1360.300 240.039 1361.601 237.253 1362.097 237.560 C 1362.594 237.867 1363.000 238.729 1363.000 239.476 M 1381.505 37.766 C 1380.890 44.353 1380.400 45.600 1376.271 51.092 C 1373.766 54.425 1371.406 58.580 1371.027 60.326 L 1370.338 63.500 1368.044 58.717 C 1366.483 55.465 1365.921 52.905 1366.287 50.717 C 1367.243 44.994 1368.837 42.000 1370.927 42.000 C 1373.361 42.000 1378.081 35.256 1380.025 29.000 C 1381.372 24.665 1381.437 24.610 1381.804 27.500 C 1382.013 29.150 1381.879 33.770 1381.505 37.766 M 1490.993 207.750 C 1490.990 209.263 1490.093 215.675 1489.000 222.000 C 1487.907 228.325 1487.010 233.864 1487.007 234.309 C 1487.003 234.754 1486.609 234.876 1486.131 234.581 C 1485.654 234.286 1484.959 232.144 1484.587 229.822 C 1484.216 227.499 1483.547 225.127 1483.101 224.550 C 1482.655 223.972 1481.787 222.005 1481.172 220.178 C 1480.110 217.023 1480.290 216.564 1484.777 210.998 C 1487.375 207.775 1489.838 205.107 1490.250 205.069 C 1490.663 205.031 1490.997 206.238 1490.993 207.750 M 1382.917 221.268 L 1387.063 229.036 1384.437 233.517 C 1382.992 235.982 1381.492 238.196 1381.102 238.437 C 1380.713 238.678 1379.629 234.828 1378.694 229.882 C 1377.759 224.935 1376.345 219.635 1375.553 218.102 C 1374.272 215.625 1374.295 215.134 1375.763 213.665 C 1377.779 211.649 1377.786 211.656 1382.917 221.268 M 1392.469 265.000 C 1391.871 265.000 1390.583 264.416 1389.606 263.701 C 1387.922 262.470 1387.951 262.197 1390.165 258.451 L 1392.500 254.500 1393.028 259.750 C 1393.373 263.186 1393.180 265.000 1392.469 265.000 "/></g>
<g fill="#FFFFFFFF" stroke="#FFFFFFFF">
<path d="M 315.816 27.856 C 313.981 29.468 311.853 32.522 311.088 34.643 C 310.322 36.765 306.237 44.350 302.010 51.500 C 297.782 58.650 289.463 72.825 283.522 83.000 C 277.581 93.175 269.033 107.800 264.525 115.500 C 255.643 130.673 240.806 156.054 224.191 184.500 C 218.408 194.400 210.215 208.352 205.983 215.505 C 201.752 222.658 197.987 229.465 197.617 230.632 C 196.432 234.365 187.700 242.139 181.230 245.221 C 174.481 248.435 172.699 250.558 173.188 254.799 L 173.500 257.500 214.679 257.761 C 255.650 258.021 255.862 258.012 256.520 255.937 C 256.884 254.791 256.643 252.552 255.985 250.963 C 254.777 248.047 250.900 246.391 237.385 243.022 C 232.731 241.861 226.141 237.050 224.209 233.403 C 221.915 229.071 225.967 212.752 232.256 201.000 C 235.464 195.005 242.919 186.749 247.200 184.450 C 249.406 183.266 256.059 183.000 283.508 183.000 C 305.117 183.000 318.712 183.402 321.589 184.127 C 327.946 185.727 331.211 190.100 334.064 200.832 C 335.331 205.599 336.976 210.987 337.720 212.805 C 344.265 228.796 338.956 242.547 324.588 246.812 C 318.058 248.750 314.629 252.602 316.621 255.761 C 317.649 257.390 323.746 257.517 413.109 257.775 C 465.574 257.926 509.481 257.813 510.680 257.523 C 514.239 256.664 516.078 254.182 515.382 251.178 C 514.217 246.147 512.197 244.000 508.626 244.000 C 503.873 244.000 499.197 242.207 493.836 238.330 C 485.247 232.117 484.615 225.932 488.488 186.000 C 489.369 176.925 490.715 162.525 491.481 154.000 C 494.243 123.267 494.981 115.340 495.997 105.500 C 496.565 100.000 497.708 88.300 498.537 79.500 C 499.367 70.700 500.565 61.250 501.200 58.500 C 502.826 51.458 508.436 45.773 516.981 42.507 C 520.605 41.122 524.567 39.291 525.785 38.438 C 528.275 36.694 528.711 32.835 526.616 31.096 C 525.603 30.255 511.368 30.021 473.579 30.224 C 428.958 30.462 421.797 30.704 420.978 32.000 C 419.656 34.093 419.764 40.736 421.134 41.583 C 421.757 41.968 425.470 42.886 429.384 43.622 C 440.859 45.782 443.441 47.458 446.909 55.000 C 449.787 61.257 449.862 61.781 448.919 69.000 C 448.380 73.125 447.294 84.150 446.504 93.500 C 444.763 114.116 442.555 139.666 440.540 162.500 C 439.715 171.850 438.346 187.825 437.497 198.000 C 435.472 222.277 432.804 232.326 426.347 239.999 C 423.857 242.958 417.292 247.000 414.976 247.000 C 414.369 247.000 411.538 245.913 408.686 244.584 C 403.209 242.033 400.156 238.422 397.623 231.500 C 396.817 229.300 395.223 225.717 394.079 223.539 C 392.936 221.360 392.000 218.504 392.000 217.192 C 392.000 215.361 364.398 139.562 355.333 116.500 C 354.468 114.300 353.409 111.600 352.979 110.500 C 352.549 109.400 345.601 90.762 337.540 69.082 C 329.478 47.403 322.043 28.599 321.018 27.295 L 319.154 24.926 315.816 27.856 M 296.237 99.750 C 297.776 101.371 301.107 108.453 304.349 117.000 C 307.375 124.975 311.716 136.225 313.996 142.000 C 321.859 161.916 321.538 160.862 320.163 162.239 C 319.225 163.178 311.815 163.578 291.165 163.807 C 262.702 164.121 258.000 163.630 258.000 160.344 C 258.000 159.405 262.127 151.182 267.170 142.069 C 272.214 132.956 279.326 120.100 282.976 113.500 C 290.598 99.716 292.257 97.000 293.053 97.000 C 293.368 97.000 294.801 98.238 296.237 99.750 "/></g>
<g fill="#FFFFFFFF" stroke="#FFFFFFFF">
<path d="M 548.577 31.566 C 546.767 33.376 546.548 36.286 548.015 39.028 C 548.919 40.717 560.349 45.000 563.953 45.000 C 566.138 45.000 570.826 48.951 572.585 52.275 C 573.918 54.793 574.395 59.007 574.758 71.500 C 575.186 86.231 574.778 93.454 572.018 120.000 C 571.097 128.863 570.144 138.604 566.493 176.500 C 562.217 220.881 561.160 228.096 558.089 233.834 C 556.304 237.169 549.192 242.656 544.212 244.540 C 537.318 247.149 535.204 248.793 534.475 252.114 C 533.112 258.318 528.957 258.000 611.351 258.000 L 686.458 258.000 693.067 255.474 C 698.334 253.462 701.183 251.462 707.089 245.630 C 711.165 241.605 715.235 236.779 716.134 234.906 C 721.385 223.960 723.985 216.411 724.962 209.281 C 726.247 199.896 725.323 196.000 721.812 196.000 C 719.538 196.000 718.159 197.354 710.786 206.830 C 704.506 214.902 692.876 224.319 683.446 228.969 C 668.895 236.144 654.661 239.076 635.308 238.882 C 619.824 238.727 618.118 238.301 615.714 234.000 C 613.961 230.862 613.815 229.155 614.304 217.500 C 615.251 194.954 617.894 158.426 618.905 153.926 C 620.723 145.836 625.026 144.000 642.172 144.000 C 654.538 144.000 655.532 144.152 661.357 146.936 C 666.460 149.375 668.134 150.856 671.245 155.686 C 673.305 158.884 674.992 162.281 674.995 163.236 C 675.016 170.506 679.503 177.172 683.374 175.687 C 687.129 174.246 687.987 170.619 689.469 149.920 C 690.273 138.689 691.354 127.700 691.871 125.500 C 692.388 123.300 693.117 116.733 693.491 110.907 C 694.085 101.658 693.954 100.096 692.457 98.599 C 691.514 97.656 690.088 97.136 689.289 97.442 C 688.490 97.749 687.272 98.000 686.582 98.000 C 685.892 98.000 683.401 101.836 681.045 106.525 C 675.224 118.113 668.012 123.722 656.006 125.999 C 648.723 127.380 627.695 127.274 624.547 125.839 C 621.675 124.531 621.728 125.036 623.041 111.500 C 623.574 106.000 624.681 94.075 625.500 85.000 C 626.319 75.925 627.273 65.575 627.619 62.000 C 628.440 53.525 630.959 49.286 635.706 48.395 C 637.677 48.026 649.688 47.968 662.395 48.267 C 684.008 48.776 685.946 48.976 692.415 51.376 C 696.218 52.787 700.633 55.191 702.227 56.717 C 706.178 60.503 709.000 67.288 709.000 73.002 C 709.000 83.474 711.613 87.238 717.364 85.052 C 720.815 83.740 721.346 81.832 722.117 68.000 C 722.500 61.125 723.394 50.627 724.102 44.671 C 725.014 37.008 725.083 33.354 724.336 32.171 C 723.367 30.634 716.355 30.480 636.718 30.244 C 559.009 30.015 549.993 30.150 548.577 31.566 "/></g>
<g fill="#FFFFFFFF" stroke="#FFFFFFFF">
<path d="M 911.660 31.823 C 906.778 37.217 912.266 42.034 926.344 44.713 C 935.175 46.394 939.728 59.453 938.690 80.127 C 938.376 86.382 937.413 98.137 936.551 106.249 C 935.689 114.361 934.297 127.636 933.458 135.749 C 932.620 143.862 931.281 156.800 930.484 164.500 C 929.687 172.200 928.141 188.175 927.049 200.000 C 925.069 221.440 924.559 224.379 921.673 231.000 C 919.864 235.147 912.493 242.487 909.115 243.503 C 900.360 246.137 895.105 251.773 897.647 255.803 C 898.636 257.371 904.493 257.519 974.752 257.756 L 1050.786 258.012 1057.143 255.113 C 1061.670 253.048 1065.405 250.240 1070.118 245.357 C 1077.701 237.501 1078.534 236.121 1083.912 222.500 C 1092.751 200.113 1088.965 188.031 1077.410 201.750 C 1074.747 204.913 1068.727 211.325 1064.034 216.000 C 1057.072 222.935 1053.842 225.306 1046.500 228.874 C 1031.529 236.150 1018.105 239.000 998.802 239.000 C 985.567 239.000 981.951 238.168 978.485 234.324 C 975.941 231.505 975.938 231.475 976.364 216.000 C 976.763 201.506 977.190 196.026 980.027 169.000 C 982.485 145.585 984.074 144.000 1005.087 144.000 C 1017.793 144.000 1018.469 144.108 1024.377 147.074 C 1031.872 150.836 1034.543 154.063 1037.570 163.010 C 1042.007 176.125 1044.126 178.227 1048.809 174.165 C 1050.698 172.528 1051.040 170.623 1052.003 156.415 C 1052.596 147.662 1053.704 134.650 1054.466 127.500 C 1057.265 101.232 1057.308 99.235 1055.102 98.055 C 1051.348 96.046 1048.423 98.334 1044.697 106.195 C 1040.455 115.147 1035.512 119.992 1027.000 123.544 C 1021.173 125.976 1018.930 126.308 1005.330 126.748 C 993.808 127.121 989.399 126.910 986.991 125.869 C 983.939 124.551 983.845 124.334 984.457 120.000 C 985.382 113.442 987.784 89.505 989.022 74.500 C 990.361 58.283 991.388 53.612 994.245 50.755 C 996.469 48.531 996.848 48.500 1022.000 48.536 C 1044.025 48.567 1048.181 48.819 1052.500 50.380 C 1066.544 55.458 1070.082 59.941 1071.530 74.500 C 1072.455 83.807 1072.785 84.729 1075.422 85.391 C 1078.996 86.288 1082.536 84.567 1083.766 81.334 C 1084.359 79.775 1085.068 72.425 1085.342 65.000 C 1085.616 57.575 1086.420 47.537 1087.129 42.693 C 1088.052 36.384 1088.114 33.405 1087.350 32.193 C 1086.362 30.627 1079.792 30.481 999.801 30.245 C 917.015 30.000 913.249 30.067 911.660 31.823 "/></g>
<g fill="#FFFFFFFF" stroke="#FFFFFFFF">
<path d="M 1226.959 25.375 C 1226.689 25.645 1221.525 26.372 1215.484 26.992 C 1197.985 28.786 1194.053 29.719 1179.366 35.565 C 1158.667 43.804 1149.736 49.536 1135.054 64.006 C 1122.282 76.593 1113.518 91.768 1106.759 113.000 C 1100.227 133.520 1100.104 134.074 1098.902 148.500 C 1097.553 164.678 1097.553 164.777 1098.741 174.500 C 1099.807 183.230 1101.916 191.204 1105.617 200.500 C 1106.931 203.800 1108.004 206.876 1108.003 207.337 C 1107.997 209.019 1118.349 223.083 1123.282 228.094 C 1133.731 238.710 1156.323 252.657 1169.000 256.319 C 1185.640 261.126 1206.564 263.235 1216.543 261.111 C 1248.686 254.270 1267.593 245.824 1287.955 229.213 C 1307.314 213.420 1319.938 193.000 1310.343 193.000 C 1306.459 193.000 1302.167 195.727 1292.719 204.198 C 1276.239 218.974 1260.173 227.467 1239.000 232.596 C 1231.135 234.502 1213.123 234.379 1206.154 232.372 C 1189.437 227.559 1174.268 214.788 1164.401 197.222 C 1160.487 190.253 1156.005 175.196 1154.997 165.632 C 1152.610 142.981 1155.204 113.517 1160.994 97.500 C 1166.395 82.562 1175.680 66.837 1182.994 60.240 C 1188.273 55.480 1198.820 49.224 1206.500 46.299 C 1219.524 41.338 1238.347 40.428 1252.000 44.099 C 1274.087 50.037 1292.460 67.630 1307.103 96.859 C 1311.933 106.501 1313.688 107.692 1317.962 104.232 C 1320.056 102.536 1320.143 101.771 1320.083 85.482 C 1320.049 76.142 1319.724 60.737 1319.361 51.248 C 1318.651 32.704 1318.192 31.233 1313.488 32.414 C 1310.911 33.060 1309.935 33.943 1305.375 39.750 C 1301.752 44.363 1298.794 44.045 1280.264 37.046 C 1262.405 30.300 1255.223 28.460 1241.276 27.059 C 1235.899 26.518 1230.589 25.808 1229.475 25.480 C 1228.361 25.152 1227.228 25.105 1226.959 25.375 "/></g>
<g fill="#FFFFFFFF" stroke="#FFFFFFFF">
<path d="M 820.000 26.056 C 818.075 26.531 813.125 27.633 809.000 28.506 C 797.541 30.931 793.133 32.818 785.341 38.633 C 774.273 46.892 768.374 52.663 763.622 59.878 C 755.469 72.258 753.824 77.729 753.273 94.282 C 752.420 119.942 758.022 132.821 776.062 146.676 C 786.937 155.028 819.776 169.849 835.341 173.430 C 838.379 174.129 849.215 180.605 855.041 185.204 C 856.988 186.741 859.862 190.528 861.427 193.619 C 864.058 198.814 864.225 199.810 863.635 206.786 C 862.708 217.756 860.280 224.473 855.198 230.125 C 847.151 239.075 839.375 242.841 824.476 245.008 C 817.699 245.993 815.218 245.919 808.515 244.535 C 804.151 243.633 800.111 242.543 799.540 242.111 C 798.968 241.680 795.830 240.268 792.567 238.973 C 784.746 235.870 774.450 226.156 767.105 214.950 C 762.037 207.219 759.942 203.177 754.429 190.500 C 751.165 182.994 746.392 181.290 741.652 185.939 C 739.854 187.702 739.862 188.106 741.942 200.626 C 745.514 222.137 745.849 224.299 746.493 230.000 C 748.228 245.356 749.841 248.373 756.966 249.598 C 758.909 249.932 764.100 251.261 768.500 252.551 C 772.900 253.841 779.875 255.611 784.000 256.483 C 788.125 257.355 794.604 258.782 798.398 259.654 C 810.492 262.434 820.571 262.551 831.655 260.040 C 847.468 256.457 853.360 253.940 862.000 247.078 C 864.475 245.112 867.625 242.609 869.000 241.515 C 874.647 237.026 883.306 227.186 885.691 222.550 C 887.091 219.827 889.273 216.002 890.540 214.050 C 891.807 212.097 894.229 205.288 895.922 198.917 C 899.341 186.049 899.897 176.228 897.617 168.928 C 896.857 166.493 895.680 162.475 895.001 160.000 C 892.702 151.611 891.598 149.603 885.332 142.418 C 875.695 131.369 864.871 124.880 840.500 115.544 C 806.940 102.687 799.115 98.682 792.117 90.782 C 787.992 86.125 786.659 80.205 787.548 70.500 C 788.316 62.114 791.062 56.807 797.195 51.855 C 806.961 43.970 819.802 40.522 832.075 42.489 C 845.991 44.719 861.373 52.887 868.099 61.616 C 869.420 63.329 872.370 67.029 874.656 69.837 C 878.673 74.771 879.799 77.222 883.460 89.000 C 886.332 98.238 886.905 99.004 890.919 98.967 C 892.921 98.948 895.498 98.101 896.765 97.044 L 899.030 95.155 898.765 64.828 L 898.500 34.500 895.352 34.194 C 893.578 34.022 889.518 35.019 886.049 36.480 C 878.707 39.570 876.063 39.310 864.702 34.382 C 860.412 32.522 856.266 31.000 855.487 31.000 C 854.707 31.000 852.061 30.318 849.606 29.484 C 847.151 28.651 841.623 27.524 837.321 26.980 C 833.019 26.436 828.150 25.811 826.500 25.592 C 824.850 25.372 821.925 25.581 820.000 26.056 "/></g>
<g fill="#037EF3FF" stroke="#037EF3FF">
<path d="M 1910.014 2.995 C 1907.179 3.955 1904.336 5.264 1903.696 5.904 C 1902.975 6.625 1902.292 12.856 1901.901 22.284 C 1901.233 38.393 1900.171 43.641 1896.597 48.500 C 1892.240 54.423 1889.000 60.907 1889.000 63.706 C 1889.000 65.273 1888.378 67.443 1887.617 68.529 C 1886.857 69.615 1885.051 73.314 1883.606 76.749 C 1882.160 80.184 1879.443 86.147 1877.567 90.001 C 1875.692 93.854 1873.860 98.468 1873.496 100.254 C 1873.132 102.039 1871.572 107.775 1870.030 113.000 C 1868.488 118.225 1866.689 126.100 1866.034 130.500 C 1865.153 136.410 1863.687 140.770 1860.421 147.191 C 1855.238 157.381 1854.689 162.095 1858.404 164.529 C 1860.600 165.968 1861.268 165.956 1866.154 164.395 C 1869.094 163.456 1871.587 162.633 1871.694 162.566 C 1871.801 162.499 1872.380 158.407 1872.980 153.472 C 1874.167 143.717 1878.353 126.997 1880.610 123.000 C 1881.883 120.744 1881.967 121.329 1881.467 129.000 C 1880.759 139.878 1879.289 151.529 1876.797 166.000 C 1875.709 172.325 1874.417 181.510 1873.927 186.412 C 1872.569 199.992 1862.064 225.758 1852.769 238.307 C 1849.995 242.050 1846.831 246.775 1845.736 248.807 C 1844.641 250.838 1842.902 254.058 1841.873 255.961 C 1838.476 262.241 1839.509 264.486 1851.472 276.816 C 1857.448 282.976 1859.211 284.219 1862.623 284.676 C 1865.355 285.043 1867.721 284.678 1869.890 283.557 L 1873.105 281.894 1867.052 275.972 C 1861.572 270.610 1861.000 269.657 1861.000 265.898 C 1861.000 261.190 1866.811 249.609 1872.991 242.000 C 1875.002 239.525 1879.149 233.675 1882.207 229.000 C 1885.265 224.325 1889.766 217.936 1892.208 214.802 C 1898.193 207.121 1902.565 198.211 1905.304 188.109 L 1907.579 179.718 1909.540 185.609 C 1911.631 191.892 1914.084 196.112 1926.111 214.110 C 1933.386 224.996 1935.092 228.066 1938.301 236.046 C 1939.086 237.996 1942.385 244.296 1945.634 250.046 C 1951.271 260.023 1954.164 265.694 1959.002 276.250 C 1960.199 278.863 1961.551 281.000 1962.006 281.000 C 1962.462 281.000 1965.009 280.059 1967.667 278.909 C 1972.584 276.781 1989.039 271.648 1996.750 269.837 C 2001.542 268.711 2001.899 267.899 1998.917 264.917 C 1997.017 263.017 1996.115 262.894 1988.643 263.517 C 1983.448 263.949 1978.891 263.778 1976.184 263.050 C 1971.998 261.922 1971.806 261.677 1966.141 250.200 C 1962.965 243.765 1959.873 237.150 1959.269 235.500 C 1958.666 233.850 1956.156 226.875 1953.693 220.000 C 1951.230 213.125 1946.288 200.075 1942.711 191.000 C 1935.546 172.821 1931.532 161.348 1930.466 156.000 C 1930.083 154.075 1929.360 151.991 1928.861 151.369 C 1925.914 147.700 1923.391 124.000 1925.946 124.000 C 1926.467 124.000 1929.504 125.545 1932.696 127.434 C 1939.533 131.479 1948.803 140.369 1949.633 143.674 C 1950.128 145.645 1950.848 145.997 1954.358 145.978 C 1956.822 145.965 1959.473 145.207 1960.901 144.109 C 1962.891 142.579 1963.190 141.702 1962.648 138.989 C 1961.913 135.315 1961.781 135.191 1950.000 127.080 C 1940.905 120.818 1929.342 109.539 1926.647 104.300 C 1925.423 101.921 1924.994 98.326 1924.976 90.300 C 1924.947 77.882 1923.969 72.705 1920.194 65.000 C 1917.876 60.266 1917.500 58.246 1917.500 50.500 C 1917.500 42.139 1917.645 41.493 1919.542 41.397 C 1924.802 41.130 1927.497 37.791 1931.072 27.114 C 1933.390 20.188 1933.410 19.161 1931.347 12.688 C 1929.385 6.527 1928.381 5.095 1925.164 3.872 C 1918.817 1.459 1915.174 1.248 1910.014 2.995 "/></g>
<g fill="#037EF3FF" stroke="#037EF3FF">
<path d="M 1785.050 3.540 C 1778.168 7.315 1776.940 9.938 1772.422 30.500 C 1771.456 34.900 1768.933 42.114 1766.816 46.532 C 1764.698 50.950 1762.535 57.214 1762.008 60.453 C 1760.732 68.290 1757.657 77.582 1752.780 88.339 C 1750.575 93.201 1748.141 99.501 1747.370 102.339 C 1745.518 109.156 1742.007 126.957 1742.003 129.547 C 1742.001 130.673 1740.233 133.319 1738.073 135.428 C 1734.790 138.634 1734.330 139.556 1735.264 141.051 C 1736.558 143.124 1740.153 144.054 1742.277 142.865 C 1744.922 141.385 1753.072 122.358 1757.534 107.245 C 1758.567 103.747 1760.448 100.001 1761.803 98.745 L 1764.224 96.500 1763.504 104.000 C 1763.108 108.125 1761.970 113.975 1760.976 117.000 C 1757.006 129.082 1756.542 132.520 1757.908 139.738 C 1759.798 149.729 1765.237 165.284 1770.412 175.500 C 1775.315 185.179 1775.803 187.718 1773.554 191.846 C 1772.759 193.306 1771.406 196.087 1770.546 198.027 C 1769.604 200.153 1767.544 202.329 1765.359 203.506 C 1763.365 204.580 1755.714 212.056 1748.357 220.121 C 1734.562 235.241 1731.284 238.140 1727.000 239.004 C 1723.166 239.778 1723.029 245.080 1726.708 250.384 C 1728.278 252.648 1730.608 256.667 1731.885 259.317 C 1734.340 264.409 1740.900 272.000 1742.845 272.000 C 1744.483 272.000 1744.292 265.385 1742.423 257.323 C 1741.555 253.583 1741.085 249.324 1741.378 247.860 C 1742.128 244.109 1751.810 235.283 1760.695 230.250 C 1764.822 227.913 1768.317 226.000 1768.463 226.000 C 1768.681 226.000 1770.040 252.895 1770.080 258.000 C 1770.123 263.490 1768.184 273.903 1766.733 275.973 C 1764.715 278.852 1764.494 282.094 1766.200 283.800 C 1767.451 285.051 1799.288 285.594 1802.355 284.417 C 1805.096 283.365 1802.964 281.220 1795.523 277.544 C 1785.420 272.552 1782.994 269.945 1783.023 264.114 C 1783.081 252.261 1785.126 234.624 1787.392 226.428 C 1788.750 221.517 1790.124 215.883 1790.446 213.907 C 1790.891 211.180 1791.929 209.734 1794.761 207.901 C 1801.031 203.844 1802.220 199.866 1801.722 184.608 C 1801.047 163.910 1799.365 152.145 1792.994 123.551 C 1791.897 118.629 1791.000 112.844 1791.000 110.697 L 1791.000 106.793 1794.447 109.646 C 1796.343 111.216 1799.667 113.850 1801.834 115.500 C 1806.724 119.224 1811.989 126.720 1812.033 130.021 C 1812.072 132.871 1815.149 137.000 1817.236 137.000 C 1819.324 137.000 1823.000 132.695 1823.000 130.250 C 1823.000 127.971 1819.411 122.622 1805.934 104.817 C 1801.222 98.593 1797.027 92.928 1796.611 92.228 C 1796.179 91.501 1797.144 88.290 1798.866 84.728 C 1803.550 75.038 1803.590 74.174 1799.732 65.871 C 1797.848 61.817 1795.481 56.250 1794.471 53.500 C 1793.462 50.750 1792.043 47.612 1791.318 46.527 C 1790.593 45.443 1790.000 43.816 1790.000 42.912 C 1790.000 40.722 1793.914 35.829 1795.087 36.554 C 1796.800 37.613 1801.845 33.001 1803.094 29.233 C 1804.995 23.504 1804.391 14.596 1801.742 9.284 C 1799.805 5.401 1798.783 4.507 1794.980 3.370 C 1789.603 1.762 1788.249 1.785 1785.050 3.540 "/></g>
<g fill="#037EF3FF" stroke="#037EF3FF">
<path d="M 291.046 99.250 C 290.257 100.488 286.625 106.900 282.976 113.500 C 279.326 120.100 272.214 132.956 267.170 142.069 C 262.127 151.182 258.000 159.405 258.000 160.344 C 258.000 163.630 262.702 164.121 291.165 163.807 C 311.815 163.578 319.225 163.178 320.163 162.239 C 321.538 160.862 321.859 161.916 313.996 142.000 C 311.716 136.225 307.375 124.975 304.349 117.000 C 299.571 104.407 295.388 97.000 293.053 97.000 C 292.739 97.000 291.835 98.013 291.046 99.250 "/></g>
<g fill="#FFFFFFFF" stroke="#FFFFFFFF">
<path d="M 1320.791 239.013 C 1310.465 242.032 1305.778 253.794 1311.529 262.257 C 1314.643 266.840 1318.633 269.000 1323.982 269.000 C 1332.279 269.000 1338.077 264.439 1339.513 256.781 C 1341.457 246.421 1330.623 236.139 1320.791 239.013 M 1329.282 242.362 C 1337.930 246.022 1339.826 256.126 1333.200 263.238 C 1330.321 266.328 1325.683 267.538 1320.469 266.560 C 1317.881 266.075 1316.146 264.803 1313.969 261.799 C 1309.856 256.120 1309.927 251.292 1314.195 246.430 C 1319.025 240.930 1323.223 239.798 1329.282 242.362 "/></g>
<g fill="#037EF3FF" stroke="#037EF3FF">
<path d="M 1319.445 241.959 C 1318.315 242.417 1315.953 244.429 1314.195 246.430 C 1309.927 251.292 1309.856 256.120 1313.969 261.799 C 1316.146 264.803 1317.881 266.075 1320.469 266.560 C 1328.121 267.996 1334.477 264.451 1336.717 257.500 C 1337.842 254.008 1336.646 248.466 1334.151 245.612 C 1330.814 241.795 1324.018 240.107 1319.445 241.959 M 1328.434 245.152 C 1330.802 246.231 1332.780 249.554 1331.697 250.636 C 1331.430 250.903 1330.032 249.941 1328.589 248.499 C 1325.950 245.859 1323.341 245.773 1320.276 248.223 C 1316.501 251.241 1318.314 260.013 1323.022 261.507 C 1325.465 262.282 1330.000 259.663 1330.000 257.477 C 1330.000 256.665 1330.675 256.000 1331.500 256.000 C 1333.295 256.000 1333.319 256.206 1331.890 259.343 C 1330.792 261.752 1327.225 264.000 1324.500 264.000 C 1319.667 264.000 1316.000 259.637 1316.000 253.887 C 1316.000 249.896 1317.453 247.362 1320.775 245.559 C 1324.122 243.743 1325.213 243.684 1328.434 245.152 "/></g>
<g fill="#FFFFFFFF" stroke="#FFFFFFFF">
<path d="M 1320.775 245.559 C 1317.453 247.362 1316.000 249.896 1316.000 253.887 C 1316.000 259.637 1319.667 264.000 1324.500 264.000 C 1327.225 264.000 1330.792 261.752 1331.890 259.343 C 1333.319 256.206 1333.295 256.000 1331.500 256.000 C 1330.675 256.000 1330.000 256.665 1330.000 257.477 C 1330.000 259.663 1325.465 262.282 1323.022 261.507 C 1318.314 260.013 1316.501 251.241 1320.276 248.223 C 1323.341 245.773 1325.950 245.859 1328.589 248.499 C 1331.440 251.349 1332.532 251.250 1331.572 248.227 C 1330.973 246.339 1327.072 243.961 1324.703 244.040 C 1324.041 244.062 1322.274 244.746 1320.775 245.559 "/></g>
</svg>
